# xmcd
#
# Track frame offsets: 
#        150
#        11969
#        28703
#        42491
#        51333
#        63226
#        76094
#        87946
#        101991
#        118238
#        130862
#        145451
#        158438
#        169997
#        184599
#        197746
#        214738
#        231152
#        241938
#        257063
#
# Disc length: 3606 seconds
#
# Revision: 0
# Processed by: cddbd v1.5.2PL0 Copyright (c) Steve Scherf et al.
# Submitted via: ExactAudioCopy v0.99pb3
#
DISCID=1d0e1414
DTITLE=Tom T. Hall - New Train, Same Rider and Places I've Done Time [CD
DTITLE=]
DYEAR=2017
DGENRE=Country
TTITLE0=Come on Back to Nashville (Ode to the Outlaws) [from New Train
TTITLE0=Same Rider, '78]
TTITLE1=I'm Not Ready Yet [from New Train - Same Rider, '78]
TTITLE2=Burning Bridges [from New Train - Same Rider, '78]
TTITLE3=Dark Hollow [from New Train - Same Rider, '78]
TTITLE4=I'd Rather Die Young (Than Grow Old Without You) [from New Tra
TTITLE4=in - Same Rider, '78]
TTITLE5=May the Force Be With You Always [from New Train - Same Rider,
TTITLE5='78]
TTITLE6=Whiskey [from New Train - Same Rider, '78]
TTITLE7=No-One Feels My Hurt [from New Train - Same Rider, '78]
TTITLE8=Mabel, You Have Been a Friend to Me [from New Train - Same Rid
TTITLE8=er, '78]
TTITLE9=I Wish I Loved Somebody Else [from New Train - Same Rider, '78
TTITLE9=]
TTITLE10=What Have You Got to Lose [from Places I've Done Time, '78]
TTITLE11=I Couldn't Live in Southern California [from Places I've Done
TTITLE11=Time, '78]
TTITLE12=The Grocery Truck [from Places I've Done Time, '78]
TTITLE13=The Man Who Shot Himself [from Places I've Done Time, '78]
TTITLE14=Son of Clayton Delaney [from Places I've Done Time, '78]
TTITLE15=Mr. Bojangles [from Places I've Done Time, '78]
TTITLE16=The Three Sofa Story [from Places I've Done Time, '78]
TTITLE17=The Great East Broadway Onion Championship of 1978 [from Plac
TTITLE17=es I've Done Time, '78]
TTITLE18=Hat Full of Feathers [from Places I've Done Time, '78]
TTITLE19=Gimme Peace [from Places I've Done Time, '78]
EXTD=
EXTT0=
EXTT1=
EXTT2=
EXTT3=
EXTT4=
EXTT5=
EXTT6=
EXTT7=
EXTT8=
EXTT9=
EXTT10=
EXTT11=
EXTT12=
EXTT13=
EXTT14=
EXTT15=
EXTT16=
EXTT17=
EXTT18=
EXTT19=
PLAYORDER=
